<?xml version="1.0" encoding="utf-8"?>
<!-- Generator: Adobe Illustrator 25.4.1, SVG Export Plug-In . SVG Version: 6.00 Build 0)  -->
<svg version="1.1" id="图层_1" xmlns="http://www.w3.org/2000/svg" xmlns:xlink="http://www.w3.org/1999/xlink" x="0px" y="0px"
	 viewBox="0 0 32 32" style="enable-background:new 0 0 32 32;" xml:space="preserve">
<style type="text/css">
	.st0{fill:#3E3A39;}
	.st1{fill:#EB1C07;}
</style>
<g>
	<rect x="8.33" y="4.57" class="st0" width="2.02" height="17.12"/>
	<rect x="21.39" y="4.31" class="st0" width="2.12" height="17.32"/>
	<path class="st0" d="M17.75,5.98c1.41,0.47,2.84-0.44,4.28-0.59c0.22-0.02,0.45-0.03,0.63-0.22c0.18-0.19,0.27-0.62,0.11-0.85
		c-0.48-0.01-0.96-0.04-1.44-0.06c-0.39-0.01-0.62,0.24-0.97,0.5c-0.41,0.32-0.85,0.58-1.29,0.78C18.74,5.7,18.1,6.09,17.75,5.98z"
		/>
	<path class="st0" d="M17.75,19.97c1.41-0.47,2.84,0.44,4.28,0.59c0.22,0.02,0.45,0.03,0.63,0.22c0.18,0.19,0.27,0.62,0.11,0.85
		c-0.48,0.01-0.96,0.04-1.44,0.06c-0.39,0.01-0.62-0.24-0.97-0.5c-0.41-0.32-0.85-0.58-1.29-0.78
		C18.74,20.25,18.1,19.85,17.75,19.97z"/>
	
		<rect x="11.78" y="6.13" transform="matrix(0.741 -0.6716 0.6716 0.741 -4.538 11.3606)" class="st0" width="1.36" height="10.86"/>
	<g>
		<path class="st0" d="M2.41,27.69v-0.13c0.27,0,0.38-0.09,0.31-0.26l-0.18-0.67H1.61l-0.2,0.67c-0.06,0.16,0.06,0.25,0.35,0.26
			v0.13H0.87v-0.13c0.18,0.01,0.31-0.08,0.37-0.28l0.89-2.81l0.24-0.02l0.81,2.68c0.07,0.28,0.22,0.43,0.43,0.43v0.13H2.41z
			 M1.67,26.46h0.81l-0.39-1.37L1.67,26.46z"/>
		<path class="st0" d="M6.64,26.68l-0.07,1.02H4.64v-0.15c0.26,0.04,0.38-0.12,0.35-0.46v-2c0.01-0.33-0.1-0.49-0.33-0.46v-0.15
			h1.07v0.15c-0.22-0.02-0.33,0.12-0.31,0.44v2.48H5.9c0.28,0.06,0.49-0.24,0.61-0.91L6.64,26.68z"/>
		<path class="st0" d="M7.71,24.48h1.11v0.15c-0.25-0.02-0.36,0.14-0.35,0.5v1.96c-0.01,0.33,0.1,0.49,0.35,0.46v0.15H7.69v-0.15
			c0.25,0.02,0.36-0.13,0.35-0.46v-1.96c0.01-0.36-0.1-0.52-0.33-0.5V24.48z"/>
		<path class="st0" d="M11.57,24.48l0.02,0.87l-0.11,0.04c-0.15-0.57-0.37-0.84-0.67-0.81c-0.28,0.01-0.43,0.2-0.44,0.55
			c0,0.26,0.21,0.49,0.63,0.68c0.49,0.23,0.73,0.55,0.72,0.96c-0.01,0.64-0.32,0.97-0.92,0.98c-0.15,0-0.33-0.04-0.54-0.11
			l-0.24,0.06L10,26.77l0.13-0.02c0.1,0.6,0.32,0.89,0.67,0.85c0.33-0.01,0.51-0.19,0.52-0.54c0-0.32-0.25-0.6-0.74-0.83
			c-0.39-0.18-0.59-0.47-0.59-0.87c0.01-0.62,0.29-0.93,0.83-0.94c0.18,0,0.37,0.04,0.55,0.13L11.57,24.48z"/>
		<path class="st0" d="M13.4,27.69v-0.15c0.27,0.04,0.4-0.1,0.39-0.43v-2.49c-0.44-0.01-0.72,0.32-0.83,1l-0.13-0.04l0.09-1.11h2.2
			l0.06,1.11l-0.11,0.04c-0.14-0.67-0.42-1-0.85-1v2.48c-0.02,0.32,0.1,0.47,0.39,0.44v0.15H13.4z"/>
	</g>
	<g>
		<path class="st0" d="M19.78,24.48l0.02,0.87l-0.11,0.04c-0.15-0.57-0.37-0.84-0.67-0.81c-0.28,0.01-0.43,0.2-0.44,0.55
			c0,0.26,0.21,0.49,0.63,0.68c0.49,0.23,0.73,0.55,0.72,0.96c-0.01,0.64-0.32,0.97-0.92,0.98c-0.15,0-0.33-0.04-0.54-0.11
			l-0.24,0.06l-0.02-0.92l0.13-0.02c0.1,0.6,0.32,0.89,0.67,0.85c0.33-0.01,0.51-0.19,0.52-0.54c0-0.32-0.25-0.6-0.74-0.83
			c-0.39-0.18-0.59-0.47-0.59-0.87c0.01-0.62,0.29-0.93,0.83-0.94c0.18,0,0.37,0.04,0.55,0.13L19.78,24.48z"/>
		<path class="st0" d="M21.61,27.69v-0.15c0.27,0.04,0.4-0.1,0.39-0.43v-2.49c-0.44-0.01-0.72,0.32-0.83,1l-0.13-0.04l0.09-1.11h2.2
			l0.06,1.11l-0.11,0.04c-0.14-0.67-0.42-1-0.85-1v2.48c-0.02,0.32,0.1,0.47,0.39,0.44v0.15H21.61z"/>
		<path class="st0" d="M24.75,27.12v-2.03c0.01-0.33-0.09-0.49-0.31-0.46v-0.15h1.07c0.68,0,1.02,0.27,1.02,0.81
			c0,0.38-0.16,0.65-0.48,0.79l0.44,1.13c0.06,0.18,0.18,0.3,0.35,0.33v0.15h-0.68l-0.52-1.5h-0.44v0.91
			c-0.02,0.32,0.08,0.47,0.31,0.44v0.15h-1.07v-0.15C24.66,27.57,24.76,27.43,24.75,27.12z M25.19,26.05h0.3
			c0.39-0.01,0.59-0.26,0.59-0.74c0.01-0.47-0.2-0.7-0.63-0.68h-0.26V26.05z"/>
		<path class="st0" d="M31.13,27.69h-1.11v-0.15c0.25,0.05,0.36-0.1,0.35-0.46V24.7l-0.92,2.88h-0.17l-0.89-2.85v2.31
			c-0.01,0.36,0.11,0.52,0.37,0.5v0.15h-0.89v-0.15c0.27,0.02,0.39-0.14,0.37-0.5v-1.92c0.02-0.36-0.08-0.52-0.31-0.5v-0.15h0.83
			l0.76,2.42l0.76-2.42h0.85v0.15c-0.25-0.02-0.36,0.12-0.33,0.43v2.03c-0.04,0.35,0.07,0.5,0.33,0.46V27.69z"/>
	</g>
	<rect x="9.34" y="14.1" class="st1" width="2.71" height="0.88"/>
</g>
</svg>
